<svg width="163" height="218" viewBox="0 0 163 218" fill="none" xmlns="http://www.w3.org/2000/svg">
<g clip-path="url(#clip0_734_3231)">
<path fill-rule="evenodd" clip-rule="evenodd" d="M116.66 48.77H112.54C112.54 54.13 111.19 59.18 108.8 63.59C109.59 65.06 110.27 66.6 110.83 68.2C114.51 62.62 116.66 55.95 116.66 48.77Z" fill="#1E1E1C"/>
<path fill-rule="evenodd" clip-rule="evenodd" d="M53.84 63.59C51.46 59.18 50.1 54.13 50.1 48.77H45.98C45.98 55.95 48.13 62.63 51.81 68.2C52.36 66.6 53.04 65.06 53.83 63.59H53.84Z" fill="#1E1E1C"/>
<path fill-rule="evenodd" clip-rule="evenodd" d="M112.21 82.9C121.51 74.48 127.35 62.31 127.35 48.77H121.32C121.32 58.4 117.92 67.23 112.25 74.13C112.44 75.52 112.54 76.95 112.54 78.39C112.54 79.92 112.43 81.42 112.21 82.89V82.9Z" fill="#1E1E1C"/>
<path fill-rule="evenodd" clip-rule="evenodd" d="M50.43 82.8998C50.22 81.4298 50.1 79.9298 50.1 78.3998C50.1 76.9498 50.2 75.5298 50.39 74.1398C44.72 67.2398 41.32 58.4098 41.32 48.7798H35.29C35.29 62.3098 41.13 74.4798 50.43 82.9098V82.8998Z" fill="#1E1E1C"/>
<path fill-rule="evenodd" clip-rule="evenodd" d="M130.1 48.77C130.1 64.43 122.72 78.36 111.25 87.28C107.42 100.19 95.48 109.61 81.32 109.61C67.16 109.61 55.22 100.19 51.39 87.28C39.92 78.36 32.54 64.42 32.54 48.77H0L81.32 162.27L162.64 48.77H130.09H130.1Z" fill="#1E1E1C"/>
<path fill-rule="evenodd" clip-rule="evenodd" d="M32.55 48.77C32.55 21.84 54.38 0 81.32 0C108.26 0 130.1 21.84 130.1 48.77H127.36C127.36 23.35 106.75 2.74 81.3301 2.74C55.9101 2.74 35.3 23.35 35.3 48.77H32.5601H32.55Z" fill="#E20E17"/>
<path fill-rule="evenodd" clip-rule="evenodd" d="M41.3199 48.77C41.3199 26.68 59.2299 8.77002 81.3199 8.77002C103.41 8.77002 121.32 26.68 121.32 48.77H116.66C116.66 29.26 100.84 13.44 81.3299 13.44C61.8199 13.44 45.9999 29.26 45.9999 48.77H41.3399H41.3199Z" fill="#E20E17"/>
<path d="M81.32 84.11C68.98 84.11 58.12 77.79 51.8 68.21C51.14 70.11 50.67 72.09 50.39 74.14C57.73 83.07 68.86 88.77 81.32 88.77C93.78 88.77 104.92 83.07 112.25 74.14C111.97 72.09 111.49 70.11 110.84 68.21C104.52 77.79 93.66 84.11 81.32 84.11Z" fill="#E20E17"/>
<path d="M53.83 63.5901C59.11 73.3601 69.44 79.9901 81.32 79.9901C93.2 79.9901 103.53 73.3501 108.81 63.5901C105.06 56.6601 98.77 51.3001 91.19 48.7801H112.54C112.54 31.5401 98.56 17.5601 81.32 17.5601C64.08 17.5601 50.1 31.5401 50.1 48.7801H71.46C63.87 51.3001 57.58 56.6601 53.84 63.5901H53.83Z" fill="#E20E17"/>
<path d="M50.4199 82.8999C50.6399 84.3999 50.9599 85.8699 51.3799 87.2899C59.6399 93.7199 70.0299 97.5599 81.3199 97.5599C92.6099 97.5599 102.99 93.7299 111.26 87.2899C111.68 85.8699 112 84.3999 112.22 82.8999C104.05 90.2999 93.2199 94.8099 81.3199 94.8099C69.4199 94.8099 58.5899 90.2999 50.4199 82.8999Z" fill="#E20E17"/>
<path fill-rule="evenodd" clip-rule="evenodd" d="M57.47 189.59V197.93C59.8 198.04 61.79 197.02 61.79 193.71C61.79 190.4 59.8 189.51 57.47 189.59ZM57.47 202.91V211.57C59.99 211.75 62.21 209.58 62.11 207.06C62.01 204.63 59.89 202.74 57.47 202.91ZM62.78 200.14C62.78 200.14 67.79 201.55 67.79 207.84C67.79 212.82 63.11 216.74 58.62 216.74H51.78V184.27H57.45C63.46 184.36 67.11 187.84 67.35 192.6C67.52 196.03 65.9 198.69 62.78 200.13V200.14ZM0 184.28H13.73V189.66H9.63V216.75H3.94V189.66H0V184.28ZM25.92 181.56V176.63H30.78V181.56H25.92ZM24.12 184.28H29.81V209.54C29.81 210.88 30.9 211.97 32.24 211.97C33.58 211.97 34.67 210.88 34.67 209.54V184.28H40.36V209.19C40.36 213.67 36.73 217.3 32.25 217.3C27.77 217.3 24.14 213.67 24.14 209.19V184.28H24.12ZM33.73 181.56V176.63H38.58V181.56H33.73ZM94.74 184.28H108.47V189.66H104.37V216.75H98.69V189.66H94.75V184.28H94.74ZM78.48 176.64H84.16V181.57H78.48V176.64ZM78.48 184.28H84.16V216.75H78.48V184.28ZM126.6 195.13L124.82 205.22H128.37L126.6 195.13ZM117.41 216.74L123.95 184.27H129.26L135.8 216.74H130.41L129.29 210.37H123.93L122.81 216.74H117.42H117.41ZM156.28 184.27H162.67L157.1 197.91L157 198.05L162.67 216.83L156.22 216.74L152.72 204.78L151.52 207.99V216.73H145.83V184.26H151.52V197.61L156.28 184.26V184.27Z" fill="#1E1E1C"/>
</g>
<defs>
<clipPath id="clip0_734_3231">
<rect width="162.66" height="217.3" fill="white"/>
</clipPath>
</defs>
</svg>
